<?xml version="1.0" standalone="no"?>
<!DOCTYPE svg PUBLIC "-//W3C//DTD SVG 1.1//EN" "http://www.w3.org/Graphics/SVG/1.1/DTD/svg11.dtd">
<svg xmlns:xlink="http://www.w3.org/1999/xlink" width="78.06ex" height="3.176ex" style="vertical-align: -0.838ex;" viewBox="0 -1006.6 33609.1 1367.4" xmlns="http://www.w3.org/2000/svg">
<defs>
<path stroke-width="10" id="E1-MJMAIN-28" d="M94 250Q94 319 104 381T127 488T164 576T202 643T244 695T277 729T302 750H315H319Q333 750 333 741Q333 738 316 720T275 667T226 581T184 443T167 250T184 58T225 -81T274 -167T316 -220T333 -241Q333 -250 318 -250H315H302L274 -226Q180 -141 137 -14T94 250Z"></path>
<path stroke-width="10" id="E1-MJMAIN-31" d="M213 578L200 573Q186 568 160 563T102 556H83V602H102Q149 604 189 617T245 641T273 663Q275 666 285 666Q294 666 302 660V361L303 61Q310 54 315 52T339 48T401 46H427V0H416Q395 3 257 3Q121 3 100 0H88V46H114Q136 46 152 46T177 47T193 50T201 52T207 57T213 61V578Z"></path>
<path stroke-width="10" id="E1-MJMAIN-2B" d="M56 237T56 250T70 270H369V420L370 570Q380 583 389 583Q402 583 409 568V270H707Q722 262 722 250T707 230H409V-68Q401 -82 391 -82H389H387Q375 -82 369 -68V230H70Q56 237 56 250Z"></path>
<path stroke-width="10" id="E1-MJMATHI-72" d="M21 287Q22 290 23 295T28 317T38 348T53 381T73 411T99 433T132 442Q161 442 183 430T214 408T225 388Q227 382 228 382T236 389Q284 441 347 441H350Q398 441 422 400Q430 381 430 363Q430 333 417 315T391 292T366 288Q346 288 334 299T322 328Q322 376 378 392Q356 405 342 405Q286 405 239 331Q229 315 224 298T190 165Q156 25 151 16Q138 -11 108 -11Q95 -11 87 -5T76 7T74 17Q74 30 114 189T154 366Q154 405 128 405Q107 405 92 377T68 316T57 280Q55 278 41 278H27Q21 284 21 287Z"></path>
<path stroke-width="10" id="E1-MJMAIN-29" d="M60 749L64 750Q69 750 74 750H86L114 726Q208 641 251 514T294 250Q294 182 284 119T261 12T224 -76T186 -143T145 -194T113 -227T90 -246Q87 -249 86 -250H74Q66 -250 63 -250T58 -247T55 -238Q56 -237 66 -225Q221 -64 221 250T66 725Q56 737 55 738Q55 746 60 749Z"></path>
<path stroke-width="10" id="E1-MJMATHI-50" d="M287 628Q287 635 230 637Q206 637 199 638T192 648Q192 649 194 659Q200 679 203 681T397 683Q587 682 600 680Q664 669 707 631T751 530Q751 453 685 389Q616 321 507 303Q500 302 402 301H307L277 182Q247 66 247 59Q247 55 248 54T255 50T272 48T305 46H336Q342 37 342 35Q342 19 335 5Q330 0 319 0Q316 0 282 1T182 2Q120 2 87 2T51 1Q33 1 33 11Q33 13 36 25Q40 41 44 43T67 46Q94 46 127 49Q141 52 146 61Q149 65 218 339T287 628ZM645 554Q645 567 643 575T634 597T609 619T560 635Q553 636 480 637Q463 637 445 637T416 636T404 636Q391 635 386 627Q384 621 367 550T332 412T314 344Q314 342 395 342H407H430Q542 342 590 392Q617 419 631 471T645 554Z"></path>
<path stroke-width="10" id="E1-MJMAIN-2212" d="M84 237T84 250T98 270H679Q694 262 694 250T679 230H98Q84 237 84 250Z"></path>
<path stroke-width="10" id="E1-MJMATHI-63" d="M34 159Q34 268 120 355T306 442Q362 442 394 418T427 355Q427 326 408 306T360 285Q341 285 330 295T319 325T330 359T352 380T366 386H367Q367 388 361 392T340 400T306 404Q276 404 249 390Q228 381 206 359Q162 315 142 235T121 119Q121 73 147 50Q169 26 205 26H209Q321 26 394 111Q403 121 406 121Q410 121 419 112T429 98T420 83T391 55T346 25T282 0T202 -11Q127 -11 81 37T34 159Z"></path>
<path stroke-width="10" id="E1-MJMAIN-3D" d="M56 347Q56 360 70 367H707Q722 359 722 347Q722 336 708 328L390 327H72Q56 332 56 347ZM56 153Q56 168 72 173H708Q722 163 722 153Q722 140 707 133H70Q56 140 56 153Z"></path>
<path stroke-width="10" id="E1-MJMAIN-33" d="M127 463Q100 463 85 480T69 524Q69 579 117 622T233 665Q268 665 277 664Q351 652 390 611T430 522Q430 470 396 421T302 350L299 348Q299 347 308 345T337 336T375 315Q457 262 457 175Q457 96 395 37T238 -22Q158 -22 100 21T42 130Q42 158 60 175T105 193Q133 193 151 175T169 130Q169 119 166 110T159 94T148 82T136 74T126 70T118 67L114 66Q165 21 238 21Q293 21 321 74Q338 107 338 175V195Q338 290 274 322Q259 328 213 329L171 330L168 332Q166 335 166 348Q166 366 174 366Q202 366 232 371Q266 376 294 413T322 525V533Q322 590 287 612Q265 626 240 626Q208 626 181 615T143 592T132 580H135Q138 579 143 578T153 573T165 566T175 555T183 540T186 520Q186 498 172 481T127 463Z"></path>
<path stroke-width="10" id="E1-MJMAIN-32" d="M109 429Q82 429 66 447T50 491Q50 562 103 614T235 666Q326 666 387 610T449 465Q449 422 429 383T381 315T301 241Q265 210 201 149L142 93L218 92Q375 92 385 97Q392 99 409 186V189H449V186Q448 183 436 95T421 3V0H50V19V31Q50 38 56 46T86 81Q115 113 136 137Q145 147 170 174T204 211T233 244T261 278T284 308T305 340T320 369T333 401T340 431T343 464Q343 527 309 573T212 619Q179 619 154 602T119 569T109 550Q109 549 114 549Q132 549 151 535T170 489Q170 464 154 447T109 429Z"></path>
</defs>
<g stroke="currentColor" fill="currentColor" stroke-width="0" transform="matrix(1 0 0 -1 0 0)">
 <use xlink:href="#E1-MJMAIN-28" x="0" y="0"></use>
 <use xlink:href="#E1-MJMAIN-31" x="394" y="0"></use>
 <use xlink:href="#E1-MJMAIN-2B" x="1121" y="0"></use>
 <use xlink:href="#E1-MJMATHI-72" x="2126" y="0"></use>
 <use xlink:href="#E1-MJMAIN-29" x="2582" y="0"></use>
 <use xlink:href="#E1-MJMAIN-28" x="2976" y="0"></use>
 <use xlink:href="#E1-MJMAIN-28" x="3370" y="0"></use>
 <use xlink:href="#E1-MJMAIN-31" x="3764" y="0"></use>
 <use xlink:href="#E1-MJMAIN-2B" x="4491" y="0"></use>
 <use xlink:href="#E1-MJMATHI-72" x="5496" y="0"></use>
 <use xlink:href="#E1-MJMAIN-29" x="5952" y="0"></use>
 <use xlink:href="#E1-MJMAIN-28" x="6346" y="0"></use>
 <use xlink:href="#E1-MJMAIN-28" x="6740" y="0"></use>
 <use xlink:href="#E1-MJMAIN-31" x="7134" y="0"></use>
 <use xlink:href="#E1-MJMAIN-2B" x="7862" y="0"></use>
 <use xlink:href="#E1-MJMATHI-72" x="8867" y="0"></use>
 <use xlink:href="#E1-MJMAIN-29" x="9323" y="0"></use>
 <use xlink:href="#E1-MJMATHI-50" x="9717" y="0"></use>
 <use xlink:href="#E1-MJMAIN-2212" x="10695" y="0"></use>
 <use xlink:href="#E1-MJMATHI-63" x="11700" y="0"></use>
 <use xlink:href="#E1-MJMAIN-29" x="12138" y="0"></use>
 <use xlink:href="#E1-MJMAIN-2212" x="12755" y="0"></use>
 <use xlink:href="#E1-MJMATHI-63" x="13760" y="0"></use>
 <use xlink:href="#E1-MJMAIN-29" x="14198" y="0"></use>
 <use xlink:href="#E1-MJMAIN-2212" x="14814" y="0"></use>
 <use xlink:href="#E1-MJMATHI-63" x="15819" y="0"></use>
 <use xlink:href="#E1-MJMAIN-3D" x="16535" y="0"></use>
 <use xlink:href="#E1-MJMAIN-28" x="17596" y="0"></use>
 <use xlink:href="#E1-MJMAIN-31" x="17990" y="0"></use>
 <use xlink:href="#E1-MJMAIN-2B" x="18717" y="0"></use>
 <use xlink:href="#E1-MJMATHI-72" x="19722" y="0"></use>
<g transform="translate(20178,0)">
 <use xlink:href="#E1-MJMAIN-29" x="0" y="0"></use>
 <use transform="scale(0.707)" xlink:href="#E1-MJMAIN-33" x="557" y="583"></use>
</g>
 <use xlink:href="#E1-MJMATHI-50" x="21029" y="0"></use>
 <use xlink:href="#E1-MJMAIN-2212" x="22007" y="0"></use>
 <use xlink:href="#E1-MJMAIN-28" x="23013" y="0"></use>
 <use xlink:href="#E1-MJMAIN-31" x="23407" y="0"></use>
 <use xlink:href="#E1-MJMAIN-2B" x="24134" y="0"></use>
 <use xlink:href="#E1-MJMAIN-28" x="25139" y="0"></use>
 <use xlink:href="#E1-MJMAIN-31" x="25533" y="0"></use>
 <use xlink:href="#E1-MJMAIN-2B" x="26260" y="0"></use>
 <use xlink:href="#E1-MJMATHI-72" x="27266" y="0"></use>
 <use xlink:href="#E1-MJMAIN-29" x="27722" y="0"></use>
 <use xlink:href="#E1-MJMAIN-2B" x="28338" y="0"></use>
 <use xlink:href="#E1-MJMAIN-28" x="29343" y="0"></use>
 <use xlink:href="#E1-MJMAIN-31" x="29737" y="0"></use>
 <use xlink:href="#E1-MJMAIN-2B" x="30464" y="0"></use>
 <use xlink:href="#E1-MJMATHI-72" x="31469" y="0"></use>
<g transform="translate(31925,0)">
 <use xlink:href="#E1-MJMAIN-29" x="0" y="0"></use>
 <use transform="scale(0.707)" xlink:href="#E1-MJMAIN-32" x="557" y="583"></use>
</g>
 <use xlink:href="#E1-MJMAIN-29" x="32777" y="0"></use>
 <use xlink:href="#E1-MJMATHI-63" x="33171" y="0"></use>
</g>
</svg>